<?xml version="1.0" encoding="UTF-8"?>
<svg version="1.1" viewBox="0 0 60 60" xmlns="http://www.w3.org/2000/svg" xmlns:xlink="http://www.w3.org/1999/xlink">
    <title>Logo</title>
    <desc>Created with Sketch.</desc>
    <defs>
        <filter id="i" x="-51.7%" y="-52.5%" width="201.7%" height="203.3%">
            <feOffset dx="0" dy="2" in="SourceAlpha" result="shadowOffsetOuter1"/>
            <feGaussianBlur in="shadowOffsetOuter1" result="shadowBlurOuter1" stdDeviation="2"/>
            <feColorMatrix in="shadowBlurOuter1" result="shadowMatrixOuter1" values="0 0 0 0 0   0 0 0 0 0   0 0 0 0 0  0 0 0 0.5 0"/>
            <feMerge>
                <feMergeNode in="shadowMatrixOuter1"/>
                <feMergeNode in="SourceGraphic"/>
            </feMerge>
        </filter>
        <circle id="d" cx="30.375" cy="37.875" r="22.125"/>
        <filter id="h" x="-46.3%" y="-28.2%" width="192.7%" height="192.7%">
            <feOffset dx="0" dy="8" in="SourceAlpha" result="shadowOffsetOuter1"/>
            <feGaussianBlur in="shadowOffsetOuter1" result="shadowBlurOuter1" stdDeviation="5.5"/>
            <feColorMatrix in="shadowBlurOuter1" values="0 0 0 0 0.215686275   0 0 0 0 0.407843137   0 0 0 0 0.556862745  0 0 0 0.25 0"/>
        </filter>
        <circle id="c" cx="30" cy="30" r="30"/>
        <filter id="g" x="-28.3%" y="-26.7%" width="156.7%" height="156.7%">
            <feOffset dx="0" dy="1" in="SourceAlpha" result="shadowOffsetOuter1"/>
            <feGaussianBlur in="shadowOffsetOuter1" result="shadowBlurOuter1" stdDeviation="5.5"/>
            <feComposite in="shadowBlurOuter1" in2="SourceAlpha" operator="out" result="shadowBlurOuter1"/>
            <feColorMatrix in="shadowBlurOuter1" values="0 0 0 0 0.215686275   0 0 0 0 0.407843137   0 0 0 0 0.556862745  0 0 0 0.3 0"/>
        </filter>
        <filter id="f" x="-56.7%" y="-55.7%" width="213.5%" height="211.3%">
            <feOffset dx="0" dy="4" in="SourceAlpha" result="shadowOffsetOuter1"/>
            <feGaussianBlur in="shadowOffsetOuter1" result="shadowBlurOuter1" stdDeviation="5.5"/>
            <feColorMatrix in="shadowBlurOuter1" result="shadowMatrixOuter1" values="0 0 0 0 0   0 0 0 0 0   0 0 0 0 0  0 0 0 0.35 0"/>
            <feMerge>
                <feMergeNode in="shadowMatrixOuter1"/>
                <feMergeNode in="SourceGraphic"/>
            </feMerge>
        </filter>
        <path id="b" d="m22.91 21.612v6.4496c0 0.25515-0.019472 0.54984-0.054826 0.8614l3.6971 2.9267c0.28107 0.22249 0.35676 0.65319 0.17009 0.9628l-0.089526 0.14849c-0.19039 0.31579-0.63073 0.52993-0.99185 0.4921l-4.0387-0.42307c-0.48585 0.97156-1.1901 2.0152-1.9737 2.0152-0.78269 0-1.4822-1.0411-1.9643-2.0117l-4.0053 0.41957c-0.36111 0.037828-0.80145-0.17631-0.99185-0.4921l-0.089526-0.14849c-0.18667-0.30961-0.11097-0.7403 0.17009-0.9628l3.6777-2.9113c-0.037244-0.31758-0.058046-0.61775-0.058046-0.87681v-6.4447l-13.693 0.69881c-0.35424 0.018078-0.85833-0.15549-1.1361-0.39652l-0.19326-0.16769c-0.27322-0.23707-0.48992-0.72792-0.4842-1.0854l0.013385-0.83571c0.0058037-0.36238 0.26302-0.78577 0.58265-0.94987l14.911-7.6548v-5.7897c0-0.89738 0.32049-2.2713 0.76539-3.0657 0 0 0.96048-2.3703 2.5068-2.3703 1.5464 0 2.5122 2.3811 2.5122 2.3811 0.41876 0.78974 0.75823 2.1518 0.75823 3.0548v5.741l15.006 7.7035c0.31963 0.16409 0.57685 0.58749 0.58265 0.94987l0.013384 0.83571c0.0057252 0.35747-0.21098 0.84832-0.4842 1.0854l-0.19326 0.16769c-0.27779 0.24103-0.78188 0.4146-1.1361 0.39652l-13.788-0.70366z"/>
    </defs>
    <g fill="none" fill-rule="evenodd">
        <g transform="translate(-482 -50)">
            <rect width="1024" height="1328" fill="#F3F7FA"/>
            <g transform="translate(482 50)" filter="url(#i)">
                <g transform="translate(0 .14084)">
                    <g fill="#000">
                        <use filter="url(#h)" xlink:href="#d"/>
                    </g>
                    <mask id="e" fill="white">
                        <use xlink:href="#c"/>
                    </mask>
                    <use fill="black" filter="url(#g)" xlink:href="#c"/>
                    <circle cx="30" cy="30" r="28.125" fill="#2196F3" fill-rule="evenodd" stroke="#42A5F5" stroke-linejoin="square" stroke-width="3.75"/>
                    <g mask="url(#e)" stroke="#42A5F5" stroke-width="3.75">
                        <g transform="translate(2.25 4.5)">
                            <path d="m0.46398 18.375h53.822" stroke-linecap="square"/>
                            <path d="m0.46398 34.125h53.822" stroke-linecap="square"/>
                            <path d="m27 0s-9.9622 11.578-9.7465 26.25c0.2157 14.672 9.7465 24.75 9.7465 24.75" stroke-linecap="round" stroke-linejoin="round"/>
                            <path transform="translate(32.625 25.5) scale(-1 1) translate(-32.625 -25.5)" d="m37.5 0s-9.9622 11.578-9.7465 26.25c0.2157 14.672 9.7465 24.75 9.7465 24.75" stroke-linecap="round" stroke-linejoin="round"/>
                        </g>
                    </g>
                </g>
                <g transform="translate(3.4606 2.0775)" filter="url(#f)">
                    <g transform="translate(26.316 26.723) rotate(60) translate(-19.5 -18)">
                        <mask id="a" fill="white">
                            <use xlink:href="#b"/>
                        </mask>
                        <use fill="#FFFFFF" xlink:href="#b"/>
                        <polygon points="15.059 9.94 16.368 9.94 16.368 22.348 15.059 22.348" fill="#EBECF2" mask="url(#a)"/>
                        <path d="m38.499 19.83c-0.0058037-0.36238-0.26302-0.78577-0.58265-0.94987l-15.504-7.9592v10.665l14.286 0.72907c0.35424 0.018078 0.85833-0.15549 1.1361-0.39652l0.19326-0.16769c0.27322-0.23707 0.48992-0.72792 0.4842-1.0854l-0.013384-0.83571z" fill="#DEE1E3" mask="url(#a)"/>
                        <path d="m21.492 33.018c0.41444-0.91521 0.65716-1.7948 0.65716-1.7948 0.22897-0.64978 0.4148-1.6161 0.50077-2.4631l3.9024 3.0891c0.28107 0.22249 0.35676 0.65319 0.17009 0.9628l-0.089526 0.14849c-0.19039 0.31579-0.63073 0.52993-0.99185 0.4921l-4.149-0.43463z" fill="#DEE1E3" mask="url(#a)" opacity=".4"/>
                        <path d="m26.426 21.791l-3.7467-0.19121v-10.542l1.7915 0.91972 1.9552 9.8132z" fill="#C5C6CC" mask="url(#a)"/>
                        <path d="m22.91 0.67859v34.4s-1.8154-0.033085-3.2814-0.033085c-0.017748 0-0.035405-5.158e-4 -0.05297-0.0015349 0.7604-1.1216 2.0258-3.5332 2.0258-6.5807v-23.815c0-2.6461-1.2031-3.9889-1.6864-4.6249 1.3522 0.22813 2.995 0.65568 2.995 0.65568z" fill="#DEE1E3" mask="url(#a)"/>
                    </g>
                </g>
            </g>
        </g>
    </g>
</svg>
